<svg width="382" height="590" viewBox="0 0 382 590" fill="none" xmlns="http://www.w3.org/2000/svg">
<path fill-rule="evenodd" clip-rule="evenodd" d="M95.9593 -106.919C78.9923 -107.176 64.1883 -96.2103 50.7467 -91.6297C17.0755 -80.1445 -13.5408 -65.3936 -42.7335 -49.4318C-133.281 0.104791 -217.877 53.9957 -249.856 162.169C-262.259 204.128 -246.972 257.2 -253.522 304.663L-252.911 426.976L-242.524 425.753V278.978C-242.524 221.913 -244.266 166.737 -226.639 128.533C-182.997 33.9487 -86.9013 -13.8755 6.14502 -59.8284C17.3138 -65.3325 83.1287 -97.9777 95.9593 -94.6875C121.792 -88.0582 147.893 -74.4692 171.11 -64.1094C246.438 -30.4734 317.917 8.89296 369.679 66.1536C397.98 97.4596 419.889 134.184 427.722 186.02L428.333 426.976L439.331 425.753V263.689C439.331 219.142 441.231 173.324 429.555 140.764C394.228 42.266 282.516 -28.9506 188.828 -70.225L95.9593 -106.919Z" fill="white" fill-opacity="0.33"/>
<path fill-rule="evenodd" clip-rule="evenodd" d="M18.9754 -53.1013H17.1425L16.5315 -52.4898L34.25 -34.1428C47.6916 -19.3247 63.1738 4.5997 65.41 27.6251C71.5198 90.2431 20.9245 107.55 -14.6285 129.145C-69.9223 162.726 -157.775 212.232 -172.262 283.87C-189.632 369.74 -90.8485 506.045 -14.6285 442.265C-0.331567 430.303 14.1304 404.348 9.19974 374.382C8.3851 367.451 7.57046 360.52 6.75582 353.588C22.5314 378.565 36.0829 413.98 61.7441 428.811C118.565 461.652 167.548 429.857 181.496 377.439C203.382 295.209 125.402 173.03 209.602 137.095L169.277 36.7985L168.055 36.187C156.153 41.5014 148.607 54.9742 143.005 66.7651C113.342 129.2 139.718 220.182 150.947 282.647C157.827 320.925 153.165 363.282 128.952 380.497C31.58 449.726 1.52582 175.935 -87.9463 249.011C-87.9463 258.888 -78.47 302.829 -73.8937 307.11L-73.2827 306.498C-70.3622 300.633 -65.951 289.472 -59.2302 287.54C-46.3324 283.815 -24.8197 304.345 -21.3493 311.391V335.853C-17.7384 357.405 -11.7691 383.555 -21.3493 403.125C-47.3466 456.227 -116.051 415.583 -129.493 378.051C-167.374 272.25 -72.9406 215.332 -10.9626 182.351C16.4704 167.753 46.6407 158.879 66.632 137.095C97.3033 103.673 130.883 55.2311 95.3481 -1.11842C85.0409 -17.4655 65.8744 -34.3569 47.6916 -42.7047L18.9754 -53.1013Z" fill="white" fill-opacity="0.33"/>
<path fill-rule="evenodd" clip-rule="evenodd" d="M132.007 -48.2087L127.119 -46.9856L124.065 -43.3162C126.808 -29.1035 144.838 -11.1358 153.392 -0.50681C186.788 40.9266 213.433 90.4754 240.151 137.706C246.927 149.687 259.751 162.927 261.535 178.681H260.924C183.892 154.433 223.96 265.468 243.206 272.25L242.595 271.027C240.811 252.766 231.958 234.272 243.817 220.268C256.073 219.497 286.402 228.829 291.473 235.557C312.729 263.75 337.621 368.033 318.357 412.91C289.5 480.121 202.582 499.966 119.177 470.397C98.7516 463.156 82.1268 449.604 63.5774 441.653L57.4675 447.157V450.215C113.592 493.557 215.327 555.227 302.471 503.421C324.143 490.536 340.963 471.718 349.517 445.934C373.864 372.394 330.863 290.744 315.913 236.78L318.357 236.168C331.462 232.071 342.099 229.631 351.961 222.714C384 200.239 393.825 138.483 367.235 102.236C341.537 67.2055 292.891 52.742 251.76 33.1292C206.663 11.6266 168.581 -18.2421 132.007 -48.2087Z" fill="white" fill-opacity="0.33"/>
<path fill-rule="evenodd" clip-rule="evenodd" d="M-25.0151 -31.085C-42.6664 -27.2015 -92.883 19.7115 -106.887 33.1292C-148.177 72.679 -190.915 108.963 -213.808 167.062C-224.195 193.359 -223.401 220.439 -227.861 253.292C-246.863 393.242 -136.758 511.763 -52.5093 554.793C109.859 637.727 284.019 562.027 359.292 450.215C371.231 432.48 420.488 343.43 410.004 313.837L404.505 345.026C398.599 362.558 392.693 380.089 386.787 397.621C354.404 471.424 300.962 521.316 230.375 557.239C221.938 561.52 135.801 594.251 124.675 583.536C160.723 584.184 266.619 540.305 277.421 521.157L276.81 520.545L246.872 539.504H219.989C184.222 542.482 142.889 538.892 112.456 531.553L58.6894 524.214C-36.5077 497.532 -121.196 469.681 -167.985 395.175C-184.921 368.205 -209.092 327.646 -202.2 279.589C-191.605 205.755 -149.429 164.059 -101.388 127.921L-56.7862 96.7317C-29.1515 72.7462 -8.31699 14.3542 -25.0151 -31.085Z" fill="white" fill-opacity="0.33"/>
<path fill-rule="evenodd" clip-rule="evenodd" d="M218.767 -22.5231H215.712L215.101 -20.6884L216.323 -17.6306C248.937 -2.42717 276.052 14.7394 303.082 34.9638C313.279 42.5961 324.754 65.2423 336.075 67.9882V67.3767C327.472 44.2901 269.582 3.91474 247.483 -9.06874L218.767 -22.5231Z" fill="white" fill-opacity="0.33"/>
<path fill-rule="evenodd" clip-rule="evenodd" d="M131.396 -14.5729C126.759 -5.5829 137.616 11.5103 135.062 24.5672C128.873 26.9462 127.4 22.9465 121.62 21.5094L120.398 22.7325C119.555 36.0829 120.569 41.8133 128.952 47.195C165.379 48.5038 141.105 -2.95317 131.396 -14.5729Z" fill="white" fill-opacity="0.33"/>
<path fill-rule="evenodd" clip-rule="evenodd" d="M11.0328 6.22034H8.58885C10.9839 18.8491 18.499 35.5754 13.4767 47.8066H7.97786C6.54205 44.07 4.35474 43.6786 1.25705 43.5257L0.0350854 44.7488C-3.82022 70.3305 21.1507 77.5714 27.5293 59.4263C34.3051 40.156 15.6335 18.898 11.0328 6.22034Z" fill="white" fill-opacity="0.33"/>
<path fill-rule="evenodd" clip-rule="evenodd" d="M80.6845 193.97C72.2224 199.964 62.2573 217.821 51.9684 218.433C46.2985 210.593 35.4719 198.563 26.3072 194.582C19.4153 199.511 -10.3517 227.698 -11.5736 235.557L25.0852 272.25C39.1378 269.602 41.5817 252.277 55.0233 249.011L55.6343 250.234L78.2406 272.862C85.2424 271.523 115.51 240.327 119.176 233.722L80.6845 193.97Z" fill="white" fill-opacity="0.33"/>
<path fill-rule="evenodd" clip-rule="evenodd" d="M357.459 238.003L347.684 240.449C341.861 258.851 351.74 252.069 355.626 260.019C360.227 269.431 336.289 308.687 364.791 316.894C363.435 289.576 373.253 270.556 391.674 286.928C398.646 286.353 401.725 283.179 403.283 277.143C382.18 245.58 366.245 276.874 358.07 297.324L356.848 296.101C357.007 275.308 372.685 253.769 362.958 239.838L357.459 238.003Z" fill="white" fill-opacity="0.33"/>
<path fill-rule="evenodd" clip-rule="evenodd" d="M404.505 303.44L391.063 362.762C382.76 386.117 368.2 406.794 361.125 428.811L362.958 428.199C375.905 406.574 410.083 337.37 404.505 303.44Z" fill="white" fill-opacity="0.33"/>
<path fill-rule="evenodd" clip-rule="evenodd" d="M248.094 305.275C241.562 307.44 205.038 344.189 204.103 351.142L246.872 393.34H247.483L291.473 348.084L248.094 305.275Z" fill="white" fill-opacity="0.33"/>
<path fill-rule="evenodd" clip-rule="evenodd" d="M24.4744 419.026C20.6497 424.377 29.5272 447.769 28.1403 460.612H23.8634L15.9207 455.719C5.43011 475.601 30.2909 492.841 40.3599 475.289C50.1845 458.166 30.6331 429.281 24.4744 419.026Z" fill="white" fill-opacity="0.33"/>
</svg>
